<svg xmlns="http://www.w3.org/2000/svg" viewBox="0 0 224.39 139.18"><defs><linearGradient id="d" x1="224.39" y1="73.31" x2="147.26" y2="73.31" gradientUnits="userSpaceOnUse"><stop offset=".28" stop-color="#00aeef"/><stop offset=".54" stop-color="#31bcf2"/><stop offset="1" stop-color="#83d5f7"/></linearGradient><style>.f{fill:#00aeef}</style></defs><g id="b"><g id="c"><path class="f" d="M107.85 10.31L137.36.28v137.5h-29.51V10.31zm39.41 127.2V46.64l29.88-10.33v101.2h-29.88z"/><path d="M147.27 101.84c0-10.06 13.33-25.38 27.43-25.38h2.41v8.86h-2.41c-13.29 0-27.4 14.19-27.4 18.02" fill="#00729e"/><path d="M177.12 76.45h-2.41c-14.1 0-27.45 15.33-27.45 25.38V71.21c0-10.06 13.96-22.81 25.99-22.81h16.81c.22-1.85.5-3.11.86-3.46 2.01-2.01 33.47 15.08 33.47 18 0 2.58-31.71 18.6-33.47 16.84-.32-.32-.58-1.58-.8-3.45h-12.98" fill="url(#d)"/><path class="f" d="M46.7 71.27c-10.57 0-17.33 9.36-17.33 21.5s6.76 21.5 17.33 21.5 17.23-9.47 17.23-21.5-6.76-21.5-17.23-21.5zm-17.33 63.9v2.33H0V10.03L29.37 0v50.37c6.17-2.6 13.12-4.02 20.58-4.02 27.44 0 47.89 19.1 47.89 46.41s-20.45 46.41-47.89 46.41c-7.46 0-14.41-1.41-20.58-4.02z"/></g></g></svg>
